<?xml version="1.0" standalone="no"?>
<!DOCTYPE svg PUBLIC "-//W3C//DTD SVG 20010904//EN"
 "http://www.w3.org/TR/2001/REC-SVG-20010904/DTD/svg10.dtd">
<svg version="1.0" xmlns="http://www.w3.org/2000/svg"
 width="681.000000pt" height="209.000000pt" viewBox="0 0 681.000000 209.000000"
 preserveAspectRatio="xMidYMid meet">
<metadata>
Created by potrace 1.16, written by Peter Selinger 2001-2019
</metadata>
<g transform="translate(0.000000,209.000000) scale(0.100000,-0.100000)"
fill="#E14924" stroke="none">
<path d="M2471 2050 c15 -4 2 -10 -42 -18 -35 -7 -117 -31 -182 -53 -66 -21
-124 -36 -130 -32 -5 3 -7 2 -4 -4 8 -12 -141 -86 -155 -77 -6 4 -8 3 -5 -3 4
-6 -16 -24 -44 -42 -53 -33 -64 -37 -54 -21 10 16 -1 11 -16 -7 -12 -14 -12
-16 0 -8 10 6 12 4 7 -4 -5 -7 -14 -10 -21 -7 -8 3 -19 -3 -27 -12 -12 -16
-11 -16 7 -2 19 14 19 14 6 -3 -8 -10 -20 -16 -27 -13 -7 3 -18 -3 -26 -12
-12 -16 -11 -16 7 -2 20 15 20 14 1 -8 -20 -23 -42 -31 -30 -9 5 6 -36 -28
-89 -77 -53 -49 -97 -92 -97 -95 0 -3 19 13 43 34 96 90 127 114 48 38 -47
-46 -91 -81 -98 -79 -6 3 -19 -5 -30 -17 l-18 -22 25 20 25 20 -19 -23 c-11
-12 -25 -21 -32 -18 -7 3 -18 -3 -26 -12 -12 -16 -11 -16 7 -2 19 14 19 14 6
-3 -8 -10 -20 -16 -27 -13 -7 3 -18 -3 -26 -12 -12 -16 -11 -16 7 -2 19 14 19
14 6 -3 -8 -10 -20 -16 -27 -13 -7 3 -16 0 -20 -6 -5 -7 -2 -8 6 -3 9 6 11 4
6 -4 -5 -7 -14 -10 -22 -7 -7 3 -16 0 -20 -6 -5 -7 -2 -8 6 -3 9 6 11 4 6 -4
-5 -7 -14 -10 -22 -7 -7 3 -16 0 -20 -6 -5 -7 -2 -8 6 -3 9 6 11 4 6 -4 -5 -7
-14 -10 -22 -7 -7 3 -16 0 -20 -6 -4 -7 -3 -8 4 -4 7 4 12 5 12 2 0 -12 -121
-77 -131 -70 -8 4 -9 3 -5 -4 8 -14 -70 -56 -86 -46 -7 5 -8 3 -3 -6 6 -10 4
-12 -9 -7 -10 4 -15 3 -11 -3 8 -12 -113 -73 -132 -66 -9 4 -11 2 -7 -6 5 -8
2 -9 -10 -5 -9 4 -15 3 -12 -2 17 -27 -724 -299 -825 -304 -21 -1 -35 -5 -33
-8 2 -4 -7 -10 -21 -13 -38 -10 -30 -21 15 -21 22 -1 35 2 30 5 -6 4 42 21
106 39 64 18 124 35 133 38 14 4 14 3 1 -6 -12 -9 -8 -10 15 -5 37 8 44 14 19
15 -10 0 11 11 48 24 106 37 111 38 104 26 -4 -6 -2 -11 3 -11 6 0 11 6 11 13
0 7 23 20 50 29 28 9 48 12 44 7 -3 -5 0 -9 5 -9 6 0 11 6 11 13 0 15 176 81
192 71 6 -4 8 -3 5 3 -8 13 138 77 154 67 8 -5 9 -3 4 6 -6 10 -4 12 9 7 9 -4
15 -3 12 1 -3 5 33 27 80 50 46 23 84 40 84 37 0 -3 -35 -23 -77 -44 -43 -22
-74 -40 -70 -41 19 -1 167 83 161 91 -5 9 -4 10 34 14 13 1 29 8 35 15 10 10
7 10 -10 1 -13 -6 -23 -9 -23 -7 0 9 60 37 69 32 4 -3 17 1 27 10 18 14 17 14
-6 4 -24 -11 -24 -10 -5 5 11 8 25 13 32 11 7 -3 15 0 19 6 4 7 3 8 -4 4 -7
-4 -12 -5 -12 -3 0 5 77 57 85 57 4 0 3 -6 -1 -12 -4 -8 -3 -10 2 -5 5 5 9 14
9 19 0 6 6 13 14 16 8 3 11 0 7 -7 -11 -17 0 -13 15 6 12 14 12 16 0 8 -10 -6
-12 -4 -7 4 5 7 14 10 21 7 8 -3 19 3 27 12 12 16 11 16 -7 2 -19 -14 -19 -14
-6 3 8 10 20 16 27 13 7 -3 18 3 26 12 12 16 11 16 -7 2 -19 -14 -19 -14 -6 3
8 10 20 16 27 13 6 -2 22 7 35 22 l24 27 -30 -25 -30 -25 25 28 c13 15 29 26
36 23 6 -2 29 14 50 37 l39 42 -45 -40 -45 -40 40 43 c22 23 45 40 51 38 6 -2
27 12 45 32 l34 37 -40 -35 -40 -35 35 38 c19 20 40 35 46 33 7 -3 20 5 31 17
l18 22 -25 -20 -25 -20 19 23 c11 12 25 21 32 18 7 -3 18 3 26 12 12 16 11 16
-7 2 -20 -15 -20 -14 -1 8 19 22 43 31 31 12 -10 -16 1 -11 16 7 12 14 12 16
0 8 -10 -6 -12 -4 -7 4 5 7 14 10 22 7 7 -3 16 0 20 6 5 7 2 8 -6 3 -9 -6 -11
-4 -6 4 5 7 14 10 22 7 7 -3 16 0 20 6 5 7 2 8 -6 3 -9 -6 -11 -4 -6 4 5 7 15
10 23 7 8 -3 11 -1 8 4 -8 12 72 53 87 44 7 -5 8 -3 3 6 -6 10 -4 12 9 7 11
-5 15 -3 10 5 -5 8 -2 9 10 5 11 -5 15 -3 10 5 -5 8 -2 9 10 5 9 -4 15 -3 11
2 -12 20 259 109 400 132 44 7 84 16 89 20 5 5 -35 7 -88 6 -53 -1 -87 -4 -75
-7z"/>
<path d="M3133 2015 c1 -5 -3 -9 -10 -10 -6 0 -15 -4 -20 -9 -5 -5 -2 -6 6 -1
9 5 12 3 9 -6 -7 -18 20 -49 36 -43 6 2 27 -10 46 -27 l35 -30 -40 27 -40 26
35 -30 c19 -16 39 -28 45 -26 6 3 26 -13 45 -33 l35 -38 -40 35 -40 35 34 -37
c18 -20 39 -34 45 -32 6 2 36 -22 66 -53 l55 -58 -60 55 -60 55 54 -57 c29
-31 59 -54 65 -52 7 3 21 -6 32 -18 l19 -23 -25 20 c-23 18 -24 18 -8 0 10
-10 25 -20 35 -21 10 -1 36 -9 58 -18 22 -8 60 -16 85 -17 l45 -2 -45 -7 c-31
-5 -5 -7 86 -8 100 -2 139 2 160 13 21 11 57 14 129 13 l100 -2 -100 -6 -100
-6 130 -1 c72 0 117 2 100 6 -57 13 251 23 458 14 201 -8 201 -8 92 -14 -85
-4 -59 -6 110 -7 121 0 245 -2 275 -5 30 -2 36 -2 12 0 -23 2 -40 8 -38 12 3
4 -11 13 -30 20 -20 7 -32 17 -28 23 4 7 2 8 -5 4 -6 -4 -64 15 -129 42 -157
67 -409 161 -562 210 -136 44 -324 72 -620 93 -179 12 -539 9 -537 -6z"/>
<path d="M2640 1970 c32 -5 31 -6 -21 -13 -113 -14 -392 -99 -424 -129 -10 -9
2 -22 51 -56 11 -7 13 -10 7 -7 -9 4 -11 1 -7 -10 4 -9 9 -13 12 -10 9 9 51
-36 46 -50 -3 -7 0 -16 7 -21 8 -5 10 -3 4 6 -5 8 -4 11 3 6 6 -4 9 -13 6 -20
-3 -8 0 -17 7 -22 8 -5 10 -3 4 6 -5 9 -4 11 4 6 6 -4 9 -11 6 -16 -6 -9 21
-70 31 -70 2 0 -2 14 -11 30 -9 17 -13 30 -10 30 11 0 45 -81 39 -92 -4 -7 -3
-8 4 -4 7 4 12 2 12 -4 0 -7 35 -9 108 -6 74 2 88 1 47 -3 -54 -7 -50 -8 40
-8 62 0 87 2 65 6 -25 5 -3 9 80 14 193 11 379 16 325 8 -42 -7 -35 -8 45 -8
66 0 81 2 50 6 -37 5 -25 8 65 14 60 4 114 12 119 17 10 10 -84 150 -130 189
-18 16 -30 32 -26 36 3 3 0 3 -9 0 -9 -3 -26 7 -44 27 l-30 33 35 -30 35 -30
-29 32 c-15 17 -34 29 -41 27 -7 -3 -16 0 -21 7 -5 8 -3 10 6 4 8 -5 11 -4 6
3 -4 6 -13 9 -20 6 -8 -3 -17 0 -22 7 -5 8 -3 10 6 4 9 -5 11 -4 6 4 -4 6 -11
9 -16 6 -5 -3 -28 4 -51 15 -22 12 -73 30 -112 40 -58 14 -66 19 -42 21 17 2
-33 4 -110 4 -77 0 -124 -2 -105 -5z"/>
<path d="M2109 1801 c6 -4 -28 -26 -75 -49 -47 -23 -89 -40 -94 -37 -5 3 -12
0 -16 -6 -5 -8 -3 -9 6 -4 9 6 11 4 6 -4 -5 -7 -14 -10 -22 -7 -7 3 -16 0 -20
-6 -5 -7 -2 -8 6 -3 9 6 11 4 6 -4 -5 -7 -14 -10 -21 -7 -7 2 -23 -7 -36 -22
l-24 -27 30 25 30 25 -29 -33 c-17 -17 -36 -31 -43 -30 -19 4 -103 -102 -95
-120 4 -11 1 -13 -9 -7 -10 5 -11 5 -4 -3 7 -8 27 -7 70 3 67 16 102 19 70 5
-16 -7 -14 -9 15 -9 25 -1 31 2 21 8 -19 12 22 18 169 25 76 4 110 2 100 -4
-10 -7 18 -9 85 -8 l100 2 -80 6 -80 6 78 2 c88 2 98 11 72 61 -8 17 -13 31
-10 31 3 0 15 -19 25 -42 11 -24 20 -37 20 -29 0 21 -61 122 -70 116 -5 -3
-12 0 -16 6 -5 8 -3 9 6 4 8 -5 11 -3 8 6 -3 8 -11 14 -19 14 -8 1 -13 7 -11
15 5 20 -77 100 -96 92 -8 -3 -13 -1 -10 4 3 5 -7 9 -24 10 -16 1 -25 -2 -19
-5z"/>
<path d="M4390 1600 c-85 -4 -233 -8 -327 -9 -95 0 -173 -5 -173 -9 0 -5 98
-12 218 -15 220 -7 266 -12 256 -28 -3 -5 16 -8 43 -8 44 1 45 2 18 10 -23 6
-19 7 19 4 27 -3 64 -5 82 -5 18 0 39 -7 48 -15 16 -16 66 -21 66 -6 0 8 8 8
84 -4 29 -5 36 -9 25 -16 -10 -6 -7 -9 14 -9 15 0 27 4 27 9 0 5 9 7 21 4 16
-4 17 -8 7 -14 -9 -6 -3 -9 17 -9 23 0 27 3 15 10 -20 13 -28 14 170 -20 216
-37 222 -38 215 -50 -4 -6 6 -10 22 -10 22 0 25 2 13 10 -11 7 -5 8 20 3 48
-8 110 -31 137 -49 29 -18 32 -39 4 -24 -25 13 -34 13 -25 -1 3 -6 -8 -3 -25
5 -49 26 -111 29 -151 8 -19 -10 -34 -24 -33 -30 2 -7 4 -34 5 -61 1 -27 5
-48 9 -45 4 2 10 -3 13 -12 3 -8 2 -12 -4 -9 -6 4 -10 -6 -10 -22 1 -24 2 -26
11 -10 6 9 15 15 20 12 5 -4 7 -11 3 -17 -8 -13 45 -68 61 -62 7 3 16 0 21 -7
5 -8 3 -10 -7 -4 -8 5 -11 4 -6 0 4 -5 15 -10 25 -11 9 -1 37 -10 62 -19 28
-10 58 -14 80 -11 19 4 42 7 51 8 18 3 21 12 23 85 1 35 4 47 10 36 4 -8 6
-35 3 -59 -4 -37 -2 -43 9 -33 8 6 14 8 14 4 0 -4 6 -3 13 4 10 7 12 25 7 61
-4 28 -2 53 2 57 11 6 -30 53 -45 53 -6 0 0 -12 13 -27 13 -16 3 -7 -23 18
-25 26 -48 44 -51 41 -3 -2 -8 3 -12 12 -3 9 -10 14 -14 11 -10 -6 -25 14 -16
22 9 9 128 -81 202 -154 44 -42 49 -49 15 -18 l-56 50 46 -50 c26 -27 68 -77
94 -110 54 -68 61 -76 51 -55 -5 8 3 2 18 -15 14 -16 25 -27 26 -22 0 4 -23
53 -51 108 -27 56 -46 98 -41 95 5 -3 15 -19 22 -36 8 -19 19 -29 29 -28 11 2
15 -3 13 -16 -2 -10 1 -15 6 -12 5 3 24 -14 42 -37 26 -32 28 -37 9 -22 l-24
20 24 -28 c25 -28 38 -36 25 -16 -4 7 -1 10 7 7 8 -3 13 -10 12 -15 -1 -5 49
-10 110 -11 180 -4 317 -15 282 -23 -20 -4 -8 -7 40 -6 58 0 63 1 30 7 -26 4
-2 6 67 6 79 -1 110 3 120 13 9 10 9 12 1 7 -9 -5 -11 -2 -7 9 4 8 1 37 -5 63
-7 26 -14 56 -17 67 -2 11 4 4 15 -15 10 -19 16 -41 13 -49 -3 -8 -1 -12 4 -8
6 4 9 -7 6 -26 -2 -24 -1 -28 7 -17 5 8 7 19 4 25 -3 5 8 -3 26 -20 27 -25 33
-27 41 -15 13 20 13 22 -5 75 -9 25 -13 51 -9 57 5 7 3 8 -6 3 -10 -6 -12 -4
-7 9 5 11 3 15 -5 10 -8 -5 -9 -2 -5 10 5 12 -2 27 -22 46 -16 16 -27 32 -25
35 2 3 1 3 -2 0 -4 -2 -16 1 -27 7 -16 8 -23 7 -33 -6 -10 -15 -12 -15 -18 -1
-3 9 -2 13 4 10 6 -3 10 -2 10 3 0 12 -39 47 -53 47 -7 1 -25 7 -42 14 -64 28
-242 61 -330 62 -49 1 -117 5 -150 9 -48 6 -33 7 75 8 147 0 248 -14 363 -53
81 -28 100 -31 75 -11 -10 7 -14 17 -10 21 4 5 2 5 -5 1 -15 -9 -104 35 -96
47 3 6 1 7 -6 3 -6 -4 -46 4 -89 18 -186 61 -503 113 -987 162 -182 18 -642
26 -875 14z"/>
<path d="M4860 1379 c12 -9 11 -10 -7 -6 -33 7 -86 -52 -80 -89 l4 -29 2 31
c1 20 12 40 34 60 l32 29 -27 -31 c-30 -32 -36 -70 -17 -107 10 -21 10 -21 -5
-3 -9 11 -16 15 -16 9 0 -17 98 -121 112 -120 7 1 40 -7 72 -17 48 -15 69 -17
103 -9 46 11 57 8 21 -6 -19 -8 -17 -9 13 -8 21 1 34 6 31 11 -3 5 2 7 10 3
15 -5 74 44 64 54 -2 2 -7 40 -11 84 -3 44 -8 81 -11 84 -2 2 -4 -3 -4 -12 0
-26 -16 -28 -36 -4 l-19 22 25 -20 25 -20 -18 22 c-11 12 -25 19 -32 17 -7 -3
-16 0 -21 7 -5 8 -3 10 6 4 8 -5 11 -4 6 3 -4 6 -14 8 -23 5 -11 -4 -14 -3 -9
5 5 8 1 10 -10 5 -13 -5 -15 -3 -9 7 5 8 4 11 -3 6 -6 -4 -23 -4 -37 0 -21 5
-24 9 -13 16 10 7 8 8 -5 4 -10 -3 -26 -6 -35 -6 -12 -1 -10 -5 8 -16 17 -10
19 -13 5 -9 -26 9 -73 22 -110 29 -23 5 -27 4 -15 -5z"/>
<path d="M3930 1160 c0 -5 12 -10 28 -11 24 0 25 -1 7 -9 -16 -7 -14 -9 15 -9
27 -1 32 2 20 10 -11 7 -6 8 20 4 53 -10 131 -57 158 -96 l25 -34 -29 31 c-16
17 -38 37 -49 44 -11 8 -3 -3 18 -23 20 -21 46 -55 57 -75 10 -20 19 -33 20
-29 0 5 -5 18 -11 30 -9 17 -9 19 0 11 7 -6 24 -44 38 -85 22 -62 27 -97 31
-210 3 -81 0 -165 -7 -205 -14 -83 -56 -214 -77 -240 -13 -16 -13 -15 1 13 20
42 19 57 -1 18 -36 -69 -71 -109 -119 -136 -27 -16 -45 -29 -40 -29 6 0 25 9
43 20 19 12 31 16 27 10 -11 -17 -81 -49 -124 -56 -23 -4 -41 -10 -41 -15 0
-14 90 -11 150 5 30 8 58 12 62 10 5 -3 8 0 8 7 0 7 3 10 6 7 3 -4 32 19 65
50 102 95 155 231 166 422 7 126 -13 242 -57 338 -34 73 -31 83 4 15 14 -27
25 -43 26 -37 1 40 -141 218 -178 221 -9 1 -42 11 -72 22 -58 22 -190 29 -190
11z"/>
<path d="M1750 974 c0 -19 60 -187 75 -211 9 -13 13 -29 9 -35 -4 -6 -3 -8 2
-5 13 7 39 -9 39 -24 0 -7 7 -14 15 -16 13 -4 13 -3 0 7 -15 11 -9 10 67 -6
16 -3 75 -6 133 -6 82 -1 94 -3 55 -8 -27 -4 60 -7 195 -6 211 0 225 1 100 6
-144 6 -144 6 -39 8 158 3 458 -11 389 -19 -30 -3 49 -6 175 -6 127 0 210 3
185 7 l-45 7 45 1 c83 3 247 -11 220 -19 -18 -5 -12 -7 25 -7 39 0 45 2 25 8
-22 7 -21 8 13 9 21 1 36 5 33 10 -3 4 -65 11 -138 15 -405 21 -1317 77 -1343
82 -39 8 -105 46 -130 75 -19 23 -19 23 9 -1 29 -24 29 -24 -4 18 -18 23 -35
42 -38 42 -2 0 2 -8 9 -17 13 -16 12 -17 -3 -4 -10 7 -15 17 -13 22 3 4 -4 23
-16 41 -12 18 -18 24 -15 13 5 -16 3 -16 -14 5 -11 14 -20 20 -20 14z"/>
<path d="M1975 611 c22 -5 4 -10 -73 -21 -57 -7 -105 -17 -108 -22 -3 -4 5 -8
18 -8 18 0 20 -2 8 -10 -10 -6 40 -9 150 -8 l165 2 -120 6 -120 6 91 2 c135 3
405 -11 369 -19 -16 -4 85 -7 225 -7 144 0 242 4 225 8 -27 7 -26 8 15 8 25 0
97 2 160 5 70 3 92 2 55 -2 -46 -6 -28 -8 75 -8 107 1 120 2 65 7 -64 6 -60 7
47 8 64 1 119 6 122 11 6 9 -78 12 -829 35 -494 14 -583 16 -540 7z"/>
<path d="M4534 496 c3 -49 6 -110 6 -136 l0 -48 43 -6 c146 -21 787 -56 1027
-57 52 0 201 5 330 10 260 11 338 11 245 1 l-60 -7 80 -1 c51 -1 75 2 66 7
-16 11 21 17 162 27 48 3 126 14 172 23 47 9 85 13 85 9 0 -4 5 -8 10 -8 6 0
10 7 10 15 0 8 4 15 9 15 5 0 18 3 28 6 10 3 7 -2 -7 -10 -14 -8 -20 -15 -15
-15 17 -1 40 18 40 31 0 7 9 13 20 13 18 0 20 7 21 84 1 50 -2 78 -7 70 -5 -9
-9 -9 -9 -3 0 18 -35 23 -61 8 -13 -7 -20 -13 -16 -14 5 0 18 5 29 11 13 7 18
7 14 1 -17 -27 -187 -62 -406 -83 -159 -16 -631 -13 -945 4 -262 15 -291 22
-345 84 l-25 28 35 -30 34 -30 -29 36 c-17 20 -32 36 -35 36 -3 0 -12 3 -20 6
-8 3 -122 7 -254 9 l-239 4 7 -90z"/>
<path d="M4392 459 c-16 -97 -67 -204 -129 -272 -26 -28 -36 -42 -22 -29 14
12 29 22 34 22 11 0 -64 -59 -98 -76 -15 -8 -33 -12 -39 -8 -7 5 -8 3 -3 -6 6
-10 3 -12 -13 -8 -13 4 -20 2 -16 -3 3 -6 -6 -7 -23 -3 -26 7 -27 6 -11 -9 12
-12 36 -17 80 -19 l63 -1 -55 -7 -55 -7 75 -1 c52 0 69 2 55 8 -13 6 10 8 65
5 49 -3 75 -1 60 3 -22 7 -18 9 26 15 29 4 64 17 78 28 15 12 30 18 33 15 7
-7 123 103 123 115 0 4 -26 -19 -57 -50 -55 -54 -56 -54 -9 -4 28 29 48 54 45
57 -2 2 -38 8 -79 12 l-75 9 0 55 c-1 148 -6 220 -14 220 -5 0 -12 -21 -16
-47 -9 -64 -41 -164 -60 -188 -10 -14 -9 -5 5 26 24 57 52 174 48 203 -2 11
-9 -13 -16 -55z"/>
<path d="M1120 451 c0 -6 6 -11 13 -11 12 0 242 -34 306 -46 26 -4 31 -8 20
-15 -10 -6 -6 -9 16 -9 23 0 27 3 15 10 -10 7 -11 10 -2 10 7 0 15 -7 18 -15
4 -9 18 -15 33 -14 l26 1 -25 9 c-30 10 28 5 130 -13 49 -8 60 -13 45 -19 -17
-6 -16 -8 8 -8 17 -1 26 3 22 9 -7 11 -2 10 68 -5 15 -3 25 -10 22 -15 -4 -6
6 -10 22 -9 25 0 26 1 8 10 -24 11 -10 9 275 -36 138 -22 194 -34 170 -37 -19
-3 115 -6 298 -6 220 -1 331 1 327 8 -7 12 83 13 230 3 62 -4 92 -9 80 -14
-15 -5 -9 -8 20 -8 32 0 36 2 20 10 -17 7 -16 9 10 8 62 -2 95 1 95 9 0 5 -74
12 -166 16 -307 12 -1861 150 -2065 182 -26 4 -39 3 -39 -5z"/>
<path d="M6310 231 c97 -11 -131 -21 -455 -21 -160 0 -295 -3 -299 -7 -9 -10
54 -72 69 -67 6 3 18 -3 26 -13 13 -17 13 -17 -6 -3 -18 14 -19 14 -7 -2 8 -9
19 -15 27 -12 7 3 16 0 21 -7 5 -8 3 -10 -7 -4 -8 5 -11 4 -6 0 4 -5 15 -10
25 -11 9 -1 46 -15 82 -30 57 -25 78 -28 165 -29 114 0 193 22 290 80 31 19
61 33 65 30 4 -2 16 5 26 18 l19 22 -25 -20 c-15 -12 -12 -5 9 18 36 38 54 50
30 20 -13 -16 -12 -17 3 -4 14 10 15 18 7 32 -8 15 -20 19 -62 17 l-52 -1 55
-6z"/>
</g>
</svg>
